PathFileType	4	(X/Y/Z)	/Users/itak/Documents/Research/Walk-IL/dataset/trc/00124_00007.trc
DataRate	CameraRate	NumFrames	NumMarkers	Units	OrigDataRate	OrigDataStartFrame	OrigNumFrames
100.000000	100.000000	4	53	mm	100.000000	0	740
Frame#	Time	RPSI			LPSI			L3			STRN			T10			C7			CLAV			RBAK			LBAK			LSHO			LUPA			LAEL			LAOL			LWTS			LWPS			LFRA			LIFD			LHPS			LHTS			RSHO			RUPA			RAEL			RAOL			RWTS			RWPS			RFRA			RIFD			RHTS			RHPS			RBHD			LFHD			RFHD			LBHD			LHIP			RHIP			RASI			LASI			LKNE			LTHI			LANK			LTIP			LTOE			LMT1			LMT5			LHEE			RKNE			RTHI			RANK			RTIP			RTOE			RMT1			RMT5			RHEE			
		X1	Y1	Z1	X2	Y2	Z2	X3	Y3	Z3	X4	Y4	Z4	X5	Y5	Z5	X6	Y6	Z6	X7	Y7	Z7	X8	Y8	Z8	X9	Y9	Z9	X10	Y10	Z10	X11	Y11	Z11	X12	Y12	Z12	X13	Y13	Z13	X14	Y14	Z14	X15	Y15	Z15	X16	Y16	Z16	X17	Y17	Z17	X18	Y18	Z18	X19	Y19	Z19	X20	Y20	Z20	X21	Y21	Z21	X22	Y22	Z22	X23	Y23	Z23	X24	Y24	Z24	X25	Y25	Z25	X26	Y26	Z26	X27	Y27	Z27	X28	Y28	Z28	X29	Y29	Z29	X30	Y30	Z30	X31	Y31	Z31	X32	Y32	Z32	X33	Y33	Z33	X34	Y34	Z34	X35	Y35	Z35	X36	Y36	Z36	X37	Y37	Z37	X38	Y38	Z38	X39	Y39	Z39	X40	Y40	Z40	X41	Y41	Z41	X42	Y42	Z42	X43	Y43	Z43	X44	Y44	Z44	X45	Y45	Z45	X46	Y46	Z46	X47	Y47	Z47	X48	Y48	Z48	X49	Y49	Z49	X50	Y50	Z50	X51	Y51	Z51	X52	Y52	Z52	X53	Y53	Z53	

1	0	-59.22568511962891	1131.235595703125	1231.985229492188	-58.24957275390625	1132.313598632812	1097.152954101562	-65.33837127685547	1162.828369140625	1162.408447265625	143.5698394775391	1369.234741210938	1161.9736328125	-110.1607360839844	1311.64013671875	1160.919921875	-87.35031890869141	1605.07421875	1147.030395507812	102.0807723999023	1502.823852539062	1157.200073242188	-134.6244659423828	1419.728393554688	1235.1572265625	-91.36383056640625	1584.502685546875	1045.234985351562	-2.44787335395813	1572.933471679688	977.6275024414062	-20.33922004699707	1441.3349609375	906.3190307617188	-2.46785306930542	1221.567138671875	886.5087280273438	-72.69015502929688	1209.837524414062	938.40185546875	97.61243438720703	966.2403564453125	941.6217041015625	19.24932479858398	938.8482666015625	908.2060546875	16.05719566345215	1105.657348632812	885.2799072265625	109.8171768188477	773.6235961914062	968.4777221679688	48.8126106262207	864.0371704101562	911.9068603515625	114.7739486694336	876.4530639648438	933.7354125976562	-30.85017204284668	1588.031982421875	1329.575805664062	-45.94633865356445	1515.0517578125	1394.1552734375	-43.89952087402344	1220.166870117188	1414.3916015625	-52.80144500732422	1218.0966796875	1319.443115234375	105.0989227294922	979.9244384765625	1395.431274414062	31.70108222961426	961.0736083984375	1428.509643554688	-18.49211883544922	1146.614624023438	1429.374389648438	132.2082366943359	787.5477294921875	1371.94677734375	137.7494506835938	872.0331420898438	1399.856323242188	73.43395233154297	863.5147094726562	1432.344604492188	-35.83620452880859	1784.0673828125	1230.807495117188	102.7797927856445	1842.086547851562	1067.995849609375	124.4530487060547	1853.429565429688	1196.418823242188	-66.78837585449219	1776.055786132812	1099.686279296875	33.76616287231445	1044.133666992188	990.098388671875	69.67127227783203	1036.7861328125	1347.996215820312	148.5530090332031	1111.720092773438	1295.877563476562	141.8487854003906	1111.058959960938	1029.572631835938	55.91716766357422	542.8321533203125	1022.649841308594	33.9541015625	689.114501953125	994.583740234375	-55.36281204223633	42.45583724975586	1036.04248046875	-45.48082733154297	296.2297973632812	1000.430725097656	174.8388977050781	40.02515411376953	1096.198974609375	93.14741516113281	42.83228302001953	1130.320678710938	69.78006744384766	41.6047248840332	1015.808776855469	-127.040641784668	42.60225677490234	1096.162841796875	53.31972885131836	544.8041381835938	1308.427978515625	87.73467254638672	822.5945434570312	1341.34521484375	-59.79072570800781	33.47678756713867	1285.777954101562	25.71490478515625	411.459228515625	1318.341064453125	174.2050170898438	49.37362670898438	1230.132446289062	113.937255859375	41.50151824951172	1188.14892578125	76.63890075683594	42.68056869506836	1306.81005859375	-116.4236602783203	36.88492584228516	1236.01171875	
2	0.01	-59.20256423950195	1131.241333007812	1232.006225585938	-58.24520111083984	1132.322631835938	1097.174072265625	-65.32887268066406	1162.849853515625	1162.434448242188	143.6246643066406	1369.233520507812	1161.9951171875	-110.1165008544922	1311.66845703125	1160.949584960938	-87.2647705078125	1605.09375	1147.08837890625	102.1815872192383	1502.820678710938	1157.235473632812	-134.5935668945312	1419.73779296875	1235.175537109375	-91.26305389404297	1584.52783203125	1045.281860351562	-2.335058927536011	1572.958374023438	977.6754150390625	-20.24192810058594	1441.365844726562	906.3534545898438	-2.348034858703613	1221.593994140625	886.5446166992188	-72.60234832763672	1209.870849609375	938.430908203125	97.76026153564453	966.3125610351562	941.7254638671875	19.42375946044922	938.8632202148438	908.2811889648438	16.17886352539062	1105.685302734375	885.3540649414062	110.0092544555664	773.69580078125	968.5850830078125	49.03767395019531	864.0686645507812	911.9970092773438	114.9826507568359	876.521484375	933.8567504882812	-30.77482604980469	1588.020141601562	1329.620361328125	-45.85137557983398	1515.03759765625	1394.208984375	-43.84001922607422	1220.1513671875	1414.404663085938	-52.7315788269043	1218.073120117188	1319.444946289062	105.3591461181641	979.9715576171875	1395.345581054688	31.89141464233398	961.0755615234375	1428.460205078125	-18.39240837097168	1146.597045898438	1429.371948242188	132.5295562744141	787.6121826171875	1371.80859375	137.9676513671875	872.095947265625	1399.759399414062	73.67513275146484	863.5232543945312	1432.267822265625	-35.73432159423828	1784.110473632812	1230.813598632812	102.9701461791992	1842.0546875	1068.069702148438	124.5910949707031	1853.401489257812	1196.476318359375	-66.59738922119141	1776.072387695312	1099.703002929688	33.78898239135742	1044.140991210938	990.1095581054688	69.72466278076172	1036.774169921875	1348.009155273438	148.5975799560547	1111.705688476562	1295.887084960938	141.8650207519531	1111.0556640625	1029.576416015625	55.91056823730469	542.8311767578125	1022.654541015625	33.93924713134766	689.1150512695312	994.5895385742188	-55.3535041809082	42.45693588256836	1036.03759765625	-45.47548294067383	296.2275390625	1000.431579589844	174.8384094238281	40.02363967895508	1096.19775390625	93.14618682861328	42.83554077148438	1130.317260742188	69.78367614746094	41.61282730102539	1015.8115234375	-127.0434646606445	42.5948600769043	1096.159057617188	53.39450073242188	544.7993774414062	1308.417236328125	87.80353546142578	822.6788330078125	1341.130859375	-59.79091262817383	33.47128295898438	1285.767822265625	25.76888847351074	411.4388122558594	1318.342041015625	174.1956787109375	49.37653350830078	1230.127319335938	113.9267196655273	41.49724578857422	1188.145263671875	76.64167785644531	42.68581390380859	1306.810302734375	-116.425910949707	36.88243865966797	1236.012939453125	
3	0.02	-59.17208099365234	1131.250854492188	1232.034301757812	-58.2372932434082	1132.335083007812	1097.19970703125	-65.31302642822266	1162.879028320312	1162.46875	143.694091796875	1369.23046875	1162.021118164062	-110.0585098266602	1311.703857421875	1160.98876953125	-87.15361785888672	1605.120727539062	1147.162109375	102.308837890625	1502.816650390625	1157.280029296875	-134.5502166748047	1419.749877929688	1235.199462890625	-91.13179016113281	1584.55908203125	1045.343017578125	-2.195293664932251	1572.988403320312	977.73388671875	-20.11340522766113	1441.40234375	906.3990478515625	-2.195425987243652	1221.626586914062	886.5883178710938	-72.49135589599609	1209.910400390625	938.46435546875	97.95289611816406	966.3992919921875	941.8563232421875	19.64154624938965	938.8851928710938	908.3770141601562	16.34078025817871	1105.719116210938	885.4443359375	110.2770843505859	773.795166015625	968.72705078125	49.31349563598633	864.1068115234375	912.109375	115.2489700317383	876.605224609375	934.0092163085938	-30.68062019348145	1588.00830078125	1329.675415039062	-45.73212432861328	1515.02294921875	1394.277099609375	-43.76563262939453	1220.1357421875	1414.420288085938	-52.64194869995117	1218.0458984375	1319.447875976562	105.6731567382812	980.0327758789062	1395.23974609375	32.13295745849609	961.0778198242188	1428.395751953125	-18.26888847351074	1146.575317382812	1429.366333007812	132.9246368408203	787.69482421875	1371.6416015625	138.2596130371094	872.1788940429688	1399.631958007812	73.97573089599609	863.5375366210938	1432.171630859375	-35.59906387329102	1784.16064453125	1230.82470703125	103.2067260742188	1842.011962890625	1068.161499023438	124.7763366699219	1853.363891601562	1196.554809570312	-66.35600280761719	1776.0986328125	1099.72705078125	33.81591796875	1044.151245117188	990.1221313476562	69.78787231445312	1036.759155273438	1348.026489257812	148.6525421142578	1111.686767578125	1295.90087890625	141.8856964111328	1111.050659179688	1029.582885742188	55.9060173034668	542.8301391601562	1022.660339355469	33.92190551757812	689.1153564453125	994.597412109375	-55.34466934204102	42.45669937133789	1036.032592773438	-45.46591949462891	296.2245788574219	1000.431701660156	174.8367767333984	40.02182769775391	1096.196655273438	93.14439392089844	42.83926773071289	1130.312622070312	69.78684997558594	41.6202392578125	1015.814147949219	-127.0465698242188	42.58639144897461	1096.155639648438	53.49725723266602	544.7940063476562	1308.402465820312	87.88948059082031	822.797607421875	1340.8359375	-59.79330444335938	33.46516418457031	1285.759643554688	25.84418487548828	411.4102172851562	1318.342651367188	174.1844329833984	49.38124084472656	1230.122314453125	113.9142074584961	41.49418258666992	1188.141845703125	76.64358520507812	42.69089126586914	1306.81005859375	-116.4289398193359	36.87751770019531	1236.01318359375	
4	0.03	-59.13496780395508	1131.264404296875	1232.069091796875	-58.22579193115234	1132.350341796875	1097.22900390625	-65.28977203369141	1162.9150390625	1162.51025390625	143.7755737304688	1369.224731445312	1162.051025390625	-109.9890289306641	1311.74462890625	1161.035888671875	-87.01972198486328	1605.154541015625	1147.248779296875	102.4581756591797	1502.811645507812	1157.332397460938	-134.4940490722656	1419.764404296875	1235.229370117188	-90.97327423095703	1584.595336914062	1045.416748046875	-2.035325765609741	1573.021606445312	977.7994995117188	-19.95603942871094	1441.442138671875	906.455078125	-2.015290975570679	1221.6630859375	886.6375122070312	-72.36151123046875	1209.953125	938.5000610351562	98.18501281738281	966.495361328125	942.00830078125	19.89365196228027	938.9146118164062	908.4896850585938	16.53957366943359	1105.757080078125	885.5454711914062	110.6163482666016	773.918701171875	968.9006958007812	49.62547302246094	864.149658203125	912.2393188476562	115.5626754760742	876.7003173828125	934.186279296875	-30.57136154174805	1587.998901367188	1329.738647460938	-45.59395217895508	1515.010375976562	1394.357055664062	-43.67942047119141	1220.122192382812	1414.438110351562	-52.53443145751953	1218.0185546875	1319.452026367188	106.0201721191406	980.1057739257812	1395.12060546875	32.41575622558594	961.0809326171875	1428.317749023438	-18.12656784057617	1146.550903320312	1429.3564453125	133.3719635009766	787.7930908203125	1371.456665039062	138.6187438964844	872.2788696289062	1399.479125976562	74.32142639160156	863.558837890625	1432.059814453125	-35.43269729614258	1784.213623046875	1230.842163085938	103.4799194335938	1841.958740234375	1068.268188476562	125.0069580078125	1853.316772460938	1196.653930664062	-66.07420349121094	1776.136596679688	1099.759643554688	33.84680557250977	1044.164184570312	990.1358642578125	69.85805511474609	1036.742309570312	1348.047607421875	148.7155456542969	1111.663818359375	1295.919311523438	141.9095764160156	1111.043823242188	1029.592407226562	55.90469741821289	542.8290405273438	1022.666870117188	33.90338897705078	689.115478515625	994.6071166992188	-55.33747100830078	42.45500946044922	1036.027709960938	-45.45215225219727	296.22119140625	1000.430786132812	174.8343963623047	40.02008819580078	1096.196044921875	93.1419677734375	42.84368896484375	1130.306762695312	69.78910827636719	41.62598419189453	1015.816101074219	-127.0497207641602	42.57814025878906	1096.152954101562	53.62800979614258	544.7880859375	1308.38330078125	87.99338531494141	822.9436645507812	1340.477783203125	-59.79853439331055	33.45949554443359	1285.755737304688	25.94118881225586	411.3729858398438	1318.342407226562	174.1719207763672	49.38748168945312	1230.118530273438	113.9009780883789	41.49284362792969	1188.138793945312	76.64431762695312	42.69513320922852	1306.809326171875	-116.4324111938477	36.86968612670898	1236.01220703125	
